<svg width="680" height="300" viewBox="0 0 680 300" role="img" xmlns="http://www.w3.org/2000/svg">
<title>Logotipo Oposita con IA</title>
<desc>Wordmark del estudio Oposita con IA: icono que combina un cronometro deportivo con un nodo de red neuronal, junto al nombre y subtitulo academico.</desc>
<g transform="translate(70,60)">
  <circle cx="40" cy="52" r="38" fill="none" stroke="#00693C" stroke-width="3"/>
  <rect x="30" y="6" width="20" height="7" rx="3" fill="#00693C"/>
  <line x1="40" y1="13" x2="40" y2="20" stroke="#00693C" stroke-width="3"/>
  <line x1="40" y1="52" x2="40" y2="30" stroke="#00693C" stroke-width="3" stroke-linecap="round"/>
  <circle cx="40" cy="52" r="4" fill="#00693C"/>
  <circle cx="92" cy="26" r="6" fill="#00693C"/>
  <circle cx="112" cy="52" r="6" fill="#E8A33D"/>
  <circle cx="92" cy="78" r="6" fill="#00693C"/>
  <line x1="46" y1="40" x2="87" y2="28" stroke="#9CBBAA" stroke-width="2"/>
  <line x1="52" y1="52" x2="107" y2="52" stroke="#9CBBAA" stroke-width="2"/>
  <line x1="46" y1="64" x2="87" y2="76" stroke="#9CBBAA" stroke-width="2"/>
  <line x1="96" y1="30" x2="108" y2="48" stroke="#9CBBAA" stroke-width="2"/>
  <line x1="96" y1="74" x2="108" y2="56" stroke="#9CBBAA" stroke-width="2"/>
</g>
<g transform="translate(230,0)">
  <text x="0" y="130" font-family="Georgia, serif" font-size="52" font-weight="400" fill="#222222">Oposita <tspan fill="#5B6B62">con</tspan> <tspan fill="#00693C" font-weight="700">IA</tspan></text>
  <line x1="2" y1="152" x2="360" y2="152" stroke="#E0E0E0" stroke-width="1.5"/>
  <text x="0" y="178" font-family="Helvetica, Arial, sans-serif" font-size="16" fill="#5B6B62">Inteligencia artificial en la preparacion</text>
  <text x="0" y="200" font-family="Helvetica, Arial, sans-serif" font-size="16" fill="#5B6B62">de oposiciones del sector deportivo</text>
  <text x="0" y="230" font-family="Helvetica, Arial, sans-serif" font-size="13" fill="#9AA5A0">Universidad Pablo de Olavide · Comite de Etica 26/3-44</text>
</g>
</svg>
